<?xml version="1.0" encoding="UTF-8"?>
<svg width="1024px" height="1024px" viewBox="0 0 1024 1024" version="1.1" xmlns="http://www.w3.org/2000/svg" xmlns:xlink="http://www.w3.org/1999/xlink">
    <title>Artboard</title>
    <defs>
        <polygon id="path-1" points="0 0 613.081545 0 613.081545 613.081545 0 613.081545"></polygon>
        <path d="M500.462811,859.034318 C698.733037,859.034318 859.462811,698.304543 859.462811,500.034318 C859.462811,448.336452 848.535167,399.190874 828.863705,354.781412 C773.091721,228.872935 647.035171,141.034318 500.462811,141.034318 C302.192586,141.034318 141.462811,301.764093 141.462811,500.034318 C141.462811,698.304543 302.192586,859.034318 500.462811,859.034318 Z" id="path-3"></path>
        <mask id="mask-4" maskContentUnits="userSpaceOnUse" maskUnits="objectBoundingBox" x="-28" y="-28" width="774" height="774">
            <rect x="113.462811" y="113.034318" width="774" height="774" fill="white"></rect>
            <use xlink:href="#path-3" fill="black"></use>
        </mask>
    </defs>
    <g id="Artboard" stroke="none" stroke-width="1" fill="none" fill-rule="evenodd">
        <g id="Group" transform="translate(13.000000, 14.000000)">
            <g id="filecoin-logo" transform="translate(189.163090, 188.163090)">
                <g id="Clipped">
                    <mask id="mask-2" fill="white">
                        <use xlink:href="#path-1"></use>
                    </mask>
                    <g id="a-logo_1"></g>
                    <path d="M306.540773,613.081545 C137.943348,613.081545 0,475.138197 0,305.008069 C1.53270386,136.410644 137.943348,-1.53270386 308.073476,-5.20417043e-18 C476.670901,1.53270386 613.081545,137.943348 613.081545,309.60618 C611.548841,476.670901 475.138197,613.081545 306.540773,613.081545" id="Path" fill="#0090FF" mask="url(#mask-2)"></path>
                </g>
                <path d="M333.684041,270.77255 L324.377777,319.643246 L412.78728,331.86092 L406.583105,354.769059 L319.724646,342.551385 C313.52047,362.405106 310.418382,383.786035 302.663163,402.112546 C294.907943,423.493476 287.152724,444.874406 277.84646,464.728126 C265.438109,490.690683 243.723494,509.017194 214.25366,513.598822 C197.192177,516.653241 178.57965,515.126031 164.620255,504.435567 C159.967123,501.381148 155.313991,495.272311 155.313991,490.690683 C155.313991,484.581846 158.416079,476.9458 163.069211,473.891381 C166.171299,472.364172 173.926518,473.891381 178.57965,475.418591 C183.232782,480.000218 187.885914,486.109056 190.988001,492.217893 C200.294265,504.435567 212.702616,505.962776 225.110967,496.79952 C239.070362,484.581846 246.825582,467.782544 251.478714,450.983243 C260.784977,414.33022 270.091241,379.204407 277.84646,342.551385 L277.84646,336.442548 L195.641133,324.224874 L198.743221,301.316735 L284.050636,313.534409 L294.907943,266.190922 L206.49844,252.446039 L209.600528,228.010691 L301.112119,240.228365 C304.214207,231.065109 305.765251,223.429063 308.867338,215.793017 C316.622558,188.30325 324.377777,160.813483 342.990304,136.378135 C361.602831,111.942787 383.317446,96.6706943 415.889368,98.1979036 C429.848763,98.1979036 443.808158,102.779531 453.114422,113.469996 C454.665466,114.997205 457.767554,118.051624 457.767554,121.106042 C457.767554,127.21488 457.767554,134.850926 453.114422,139.432554 C446.910246,144.014181 439.155027,142.486972 432.950851,136.378135 C428.297719,131.796507 425.195632,127.21488 420.5425,122.633252 C411.236236,110.415578 397.276841,108.888368 386.419534,119.578833 C378.664314,127.21488 370.909095,137.905344 366.255963,148.595809 C355.398656,180.667204 347.643436,214.265807 336.786129,247.864411 L422.093544,260.082085 L415.889368,282.990224 L333.684041,270.77255" id="Path" fill="#FFFFFF"></path>
            </g>
            <use id="Oval" stroke="#00D2D6" mask="url(#mask-4)" stroke-width="56" stroke-dasharray="420,149" transform="translate(500.462811, 500.034318) rotate(35.000000) translate(-500.462811, -500.034318) " xlink:href="#path-3"></use>
            <circle id="Oval" stroke="#00D2D6" stroke-width="28" cx="500.098712" cy="499.098712" r="430.412017"></circle>
        </g>
    </g>
</svg>