<?xml version="1.0" encoding="UTF-8"?>
<svg width="138px" height="138px" viewBox="0 0 138 138" version="1.1" xmlns="http://www.w3.org/2000/svg" xmlns:xlink="http://www.w3.org/1999/xlink">
    <title>Group</title>
    <defs>
        <polygon id="path-1" points="0 0 75 0 75 75 0 75"></polygon>
        <circle id="path-3" cx="63" cy="63" r="45"></circle>
        <mask id="mask-4" maskContentUnits="userSpaceOnUse" maskUnits="objectBoundingBox" x="-4" y="-4" width="98" height="98">
            <rect x="14" y="14" width="98" height="98" fill="white"></rect>
            <use xlink:href="#path-3" fill="black"></use>
        </mask>
    </defs>
    <g id="Page-1" stroke="none" stroke-width="1" fill="none" fill-rule="evenodd">
        <g id="Artboard" transform="translate(-103.000000, -91.000000)">
            <g id="Group" transform="translate(109.000000, 97.000000)">
                <g id="filecoin-logo" transform="translate(25.000000, 25.000000)">
                    <g id="Clipped">
                        <mask id="mask-2" fill="white">
                            <use xlink:href="#path-1"></use>
                        </mask>
                        <g id="a-logo_1"></g>
                        <path d="M37.5,75 C16.875,75 0,58.125 0,37.3125 C0.1875,16.6875 16.875,-0.1875 37.6875,-6.50521303e-19 C58.3125,0.1875 75,16.875 75,37.875 C74.8125,58.3125 58.125,75 37.5,75" id="Path" fill="#0090FF" mask="url(#mask-2)"></path>
                    </g>
                    <path d="M40.8205128,33.1243721 L39.6820513,39.1028627 L50.4974359,40.5974853 L49.7384615,43.3999028 L39.1128205,41.9052801 C38.3538462,44.3340419 37.974359,46.9496315 37.025641,49.1915655 C36.0769231,51.8071551 35.1282051,54.4227447 33.9897436,56.8515065 C32.4717949,60.0275796 29.8153846,62.2695136 26.2102564,62.829997 C24.1230769,63.2036527 21.8461538,63.0168249 20.1384615,61.7090301 C19.5692308,61.3353744 19,60.5880631 19,60.0275796 C19,59.2802683 19.3794872,58.3461291 19.9487179,57.9724735 C20.3282051,57.7856456 21.2769231,57.9724735 21.8461538,58.1593013 C22.4153846,58.7197848 22.9846154,59.4670961 23.3641026,60.2144074 C24.5025641,61.7090301 26.0205128,61.8958579 27.5384615,60.7748909 C29.2461538,59.2802683 30.1948718,57.2251622 30.7641026,55.170056 C31.9025641,50.6861881 33.0410256,46.389148 33.9897436,41.9052801 L33.9897436,41.1579688 L23.9333333,39.6633462 L24.3128205,36.8609287 L34.7487179,38.3555514 L36.0769231,32.5638886 L25.2615385,30.8824382 L25.6410256,27.8931929 L36.8358974,29.3878155 C37.2153846,28.2668486 37.4051282,27.3327094 37.7846154,26.3985703 C38.7333333,23.0356693 39.6820513,19.6727684 41.9589744,16.6835231 C44.2358974,13.6942778 46.8923077,11.8259995 50.8769231,12.0128274 C52.5846154,12.0128274 54.2923077,12.5733109 55.4307692,13.8811057 C55.6205128,14.0679335 56,14.4415892 56,14.8152448 C56,15.5625561 56,16.4966953 55.4307692,17.0571788 C54.6717949,17.6176623 53.7230769,17.4308344 52.9641026,16.6835231 C52.3948718,16.1230396 52.0153846,15.5625561 51.4461538,15.0020727 C50.3076923,13.50745 48.6,13.3206222 47.2717949,14.628417 C46.3230769,15.5625561 45.374359,16.8703509 44.8051282,18.1781458 C43.4769231,22.1015302 42.5282051,26.2117424 41.2,30.3219547 L51.6358974,31.8165773 L50.8769231,34.6189948 L40.8205128,33.1243721" id="Path" fill="#FFFFFF"></path>
                </g>
                <use id="Oval" stroke="#00D2D6" mask="url(#mask-4)" stroke-width="8" stroke-dasharray="51,20" transform="translate(63.000000, 63.000000) rotate(-325.000000) translate(-63.000000, -63.000000) " xlink:href="#path-3"></use>
                <circle id="Oval" stroke="#00D2D6" stroke-width="4" cx="63" cy="63" r="53"></circle>
            </g>
        </g>
    </g>
</svg>